<svg width="512" height="512" viewBox="0 0 512 512" fill="none" xmlns="http://www.w3.org/2000/svg">
<g clip-path="url(#clip0_1_6182)">
<path d="M256 512.001C397.385 512.001 512 397.386 512 256.001C512 114.616 397.385 0.000976562 256 0.000976562C114.615 0.000976562 0 114.616 0 256.001C0 397.386 114.615 512.001 256 512.001Z" fill="#F0F0F0"/>
<path d="M52.9201 100.143C32.8111 126.306 17.6481 156.461 8.81909 189.22H141.997L52.9201 100.143Z" fill="#0052B4"/>
<path d="M503.181 189.22C494.352 156.462 479.188 126.307 459.08 100.144L370.005 189.22H503.181Z" fill="#0052B4"/>
<path d="M8.81909 322.785C17.6491 355.543 32.8121 385.698 52.9201 411.86L141.994 322.785H8.81909Z" fill="#0052B4"/>
<path d="M411.858 52.9219C385.695 32.8129 355.541 17.6499 322.782 8.81995V141.997L411.858 52.9219Z" fill="#0052B4"/>
<path d="M100.142 459.08C126.305 479.189 156.46 494.352 189.218 503.182V370.006L100.142 459.08Z" fill="#0052B4"/>
<path d="M189.217 8.81995C156.459 17.6499 126.304 32.8129 100.142 52.9209L189.217 141.996V8.81995Z" fill="#0052B4"/>
<path d="M322.783 503.182C355.541 494.352 385.696 479.189 411.858 459.081L322.783 370.006V503.182Z" fill="#0052B4"/>
<path d="M370.005 322.785L459.08 411.861C479.188 385.699 494.352 355.543 503.181 322.785H370.005Z" fill="#0052B4"/>
<path d="M509.833 222.61H289.393H289.392V2.16798C278.461 0.744977 267.317 0.000976562 256 0.000976562C244.681 0.000976562 233.539 0.744977 222.609 2.16798V222.608V222.609H2.167C0.744 233.54 0 244.684 0 256.001C0 267.32 0.744 278.462 2.167 289.392H222.607H222.608V509.834C233.539 511.257 244.681 512.001 256 512.001C267.317 512.001 278.461 511.258 289.391 509.834V289.394V289.393H509.833C511.256 278.462 512 267.32 512 256.001C512 244.684 511.256 233.54 509.833 222.61Z" fill="#D80027"/>
<path d="M322.783 322.785L437.019 437.021C442.273 431.769 447.285 426.278 452.067 420.586L354.265 322.784H322.783V322.785Z" fill="#D80027"/>
<path d="M189.217 322.785H189.215L74.98 437.02C80.232 442.274 85.723 447.286 91.415 452.068L189.217 354.264V322.785Z" fill="#D80027"/>
<path d="M189.217 189.22V189.218L74.9811 74.981C69.7271 80.233 64.7151 85.724 59.9331 91.416L157.736 189.219L189.217 189.22Z" fill="#D80027"/>
<path d="M322.783 189.22L437.02 74.982C431.768 69.728 426.277 64.716 420.585 59.935L322.783 157.738V189.22Z" fill="#D80027"/>
</g>
<defs>
<clipPath id="clip0_1_6182">
<rect width="512" height="512" fill="white" transform="translate(0 0.000976562)"/>
</clipPath>
</defs>
</svg>
